<svg xmlns="http://www.w3.org/2000/svg" xmlns:xlink="http://www.w3.org/1999/xlink"><defs><clipPath id="clip0_3401_313"><path fill="#fff" d="M0 0h22v22H0z"/></clipPath><linearGradient id="paint0_linear_7_1032" x1="29.973" y1="31.632" x2="35.731" y2="30.279" gradientUnits="userSpaceOnUse"><stop stop-color="#DF286A"/><stop offset="0" stop-color="#DF286A"/><stop offset=".479" stop-color="#E3484D"/><stop offset=".479" stop-color="#E3484D"/><stop offset="1" stop-color="#E86A2D"/></linearGradient><linearGradient id="paint1_linear_7_1032" x1="21.551" y1="32.724" x2="27.308" y2="30.83" gradientUnits="userSpaceOnUse"><stop stop-color="#DF286A"/><stop offset="0" stop-color="#DF286A"/><stop offset=".479" stop-color="#E3484D"/><stop offset=".479" stop-color="#E3484D"/><stop offset="1" stop-color="#E86A2D"/></linearGradient><linearGradient id="paint2_linear_7_1032" x1="13.338" y1="33.816" x2="18.469" y2="31.284" gradientUnits="userSpaceOnUse"><stop stop-color="#DF286A"/><stop offset="0" stop-color="#DF286A"/><stop offset=".479" stop-color="#E3484D"/><stop offset=".479" stop-color="#E3484D"/><stop offset="1" stop-color="#E86A2D"/></linearGradient><linearGradient id="paint3_linear_7_1032" x1="5.125" y1="34.581" x2="9.173" y2="31.508" gradientUnits="userSpaceOnUse"><stop stop-color="#DF286A"/><stop offset="0" stop-color="#DF286A"/><stop offset=".479" stop-color="#E3484D"/><stop offset=".479" stop-color="#E3484D"/><stop offset="1" stop-color="#E86A2D"/></linearGradient><clipPath id="clip0_7_1032"><path fill="#fff" d="M0 0h36v36H0z"/></clipPath></defs><symbol id="burger_menu"><g fill="none"><path d="M2 2h24M2 10h24M2 18h24" stroke="#7F3A6A" stroke-width="3" stroke-linecap="round"/></g></symbol><symbol id="facebook"><g fill="none"><path d="M7.114 11.616h3.253l.422-4.098H7.115V5.109c0-.905.6-1.116 1.022-1.116h2.594V.013L7.158 0C3.194 0 2.292 2.967 2.292 4.866v2.651H0v4.099h2.292v11.598h4.822V11.616z" fill="#fff"/></g></symbol><symbol id="instagram"><g fill="none"><g clip-path="url(#clip0_3401_313)" fill="#fff"><path d="M21.979 6.468c-.052-1.169-.241-1.973-.512-2.669a5.368 5.368 0 00-1.272-1.951A5.414 5.414 0 0018.248.58c-.7-.27-1.5-.46-2.669-.511C14.402.013 14.028 0 11.041 0S7.68.013 6.507.064c-1.17.052-1.973.241-2.67.512-.738.28-1.4.709-1.95 1.272A5.416 5.416 0 00.619 3.795c-.27.7-.46 1.5-.512 2.669C.052 7.64.04 8.015.04 11.002s.013 3.36.064 4.534c.052 1.17.24 1.973.512 2.67.279.738.713 1.4 1.272 1.95.55.559 1.216.993 1.947 1.268.7.27 1.5.46 2.669.512 1.173.051 1.547.064 4.534.064 2.986 0 3.36-.013 4.534-.064 1.169-.052 1.972-.241 2.668-.512a5.627 5.627 0 003.22-3.219c.27-.7.46-1.5.51-2.669.052-1.173.065-1.547.065-4.534s-.004-3.36-.055-4.534zm-1.982 8.982c-.047 1.075-.227 1.655-.378 2.042a3.65 3.65 0 01-2.089 2.088c-.386.15-.97.331-2.041.379-1.16.051-1.509.064-4.444.064s-3.288-.013-4.444-.064c-1.074-.048-1.654-.228-2.041-.378a3.386 3.386 0 01-1.264-.822 3.42 3.42 0 01-.82-1.263c-.151-.387-.331-.971-.379-2.041-.051-1.16-.064-1.509-.064-4.444 0-2.936.013-3.288.064-4.444.048-1.074.228-1.655.378-2.041a3.34 3.34 0 01.826-1.264 3.415 3.415 0 011.263-.82c.387-.151.972-.332 2.042-.38 1.16-.05 1.508-.064 4.443-.064 2.94 0 3.288.013 4.444.065 1.075.047 1.655.228 2.042.378.477.176.91.456 1.263.82.366.358.645.787.821 1.265.15.386.331.97.378 2.04.052 1.161.065 1.51.065 4.445 0 2.935-.013 3.279-.065 4.44z"/><path d="M11.04 5.35a5.653 5.653 0 00-5.65 5.652 5.653 5.653 0 005.65 5.652 5.653 5.653 0 005.652-5.652 5.653 5.653 0 00-5.651-5.651zm0 9.318a3.667 3.667 0 11.002-7.333 3.667 3.667 0 01-.001 7.333zm7.195-9.541a1.32 1.32 0 11-2.639 0 1.32 1.32 0 012.64 0z"/></g></g></symbol><symbol id="linkedin"><g fill="none"><path d="M6.573 24.978a.843.843 0 00.063-.324V9.591a.845.845 0 00-.843-.846H2.2a.845.845 0 00-.845.846v15.063a.843.843 0 00.845.846h3.593a.843.843 0 00.78-.522zM2.102 6.744a3.41 3.41 0 103.788-5.67 3.41 3.41 0 00-3.788 5.67zM25.36 25.011a.776.776 0 00.058-.297l-.004-7.282v-.062c0-3.181 0-8.875-6.137-8.875-2.788 0-4.095 1.019-4.977 2.344V9.525a.777.777 0 00-.777-.777H9.79a.775.775 0 00-.775.777v15.198a.775.775 0 00.775.777h3.732a.777.777 0 00.766-.777v-8.15c.095-1.096.58-3.534 2.954-3.534 3.066 0 2.757 3.563 2.757 4.618v7.057a.776.776 0 00.777.777h3.864a.776.776 0 00.719-.48z" fill="#fff"/></g></symbol><symbol id="mainIcon"><g fill="none"><g clip-path="url(#clip0_7_1032)"><path fill="url(#paint0_linear_7_1032)" d="M28.674 14.099h5.475V36h-5.475z"/><path fill="url(#paint1_linear_7_1032)" d="M20.187 19.574h5.749V36h-5.749z"/><path fill="url(#paint2_linear_7_1032)" d="M11.974 25.049h5.749V36h-5.749z"/><path fill="url(#paint3_linear_7_1032)" d="M3.761 28.882H9.51V36H3.761z"/><path d="M29.495 12.593L25.8 9.582l3.696-5.065-1.78-1.369L35.93 0l-.959 8.897-1.779-1.505-3.696 5.201z" fill="#803A6A"/><path d="M27.442 10.266C22.377 16.016 14.986 22.312.75 23.27c15.44 1.204 25.14-7.437 28.06-11.909l-1.368-1.095z" fill="#803A6A"/></g></g></symbol><symbol id="markify"><g fill="none"><path d="M92.658 14.7V8.484l.966 2.499L87.05 0h4.389l4.746 7.959h-2.541L98.412 0h4.032l-6.552 10.983.924-2.499V14.7h-4.158zM79.331 6.447h6.783V9.66h-6.783V6.447zm.294 8.253h-4.158V0h11.529v3.213h-7.371V14.7zm-11.275 0V0h4.159v14.7H68.35z" fill="#803A6A"/><path d="M56.277 11.445l-.231-4.662L62.366 0h4.579l-6.3 6.825-2.31 2.415-2.058 2.205zM52.56 14.7V0h4.116v14.7H52.56zm9.87 0l-4.788-6.069 2.709-2.898L67.26 14.7h-4.83z" fill="#DF286A"/><path d="M37.015 14.7V0h6.72c1.344 0 2.499.217 3.465.651.98.434 1.736 1.064 2.268 1.89.532.812.798 1.778.798 2.898 0 1.106-.266 2.065-.798 2.877-.532.798-1.288 1.414-2.268 1.848-.966.42-2.121.63-3.465.63h-4.41l1.848-1.743V14.7h-4.158zm9.093 0l-3.654-5.355h4.43L50.56 14.7h-4.452zm-4.935-5.208l-1.848-1.911h4.158c.868 0 1.512-.189 1.932-.567.434-.378.65-.903.65-1.575 0-.686-.216-1.218-.65-1.596-.42-.378-1.064-.567-1.932-.567h-4.158l1.848-1.911v8.127zM18.742 14.7L25.232 0h4.094l6.51 14.7H31.51L26.428 2.037h1.638L22.984 14.7h-4.242zm3.55-2.856l1.07-3.066h7.182l1.071 3.066h-9.324z" fill="#803A6A"/><path d="M.47 14.7V0h3.423l6.09 9.996H8.177L14.099 0h3.423l.042 14.7h-3.822L13.7 5.817h.651L9.92 13.251H8.072L3.515 5.817h.798V14.7H.47z" fill="#EB8B27"/></g></symbol></svg>