<svg width="36" height="36" fill="none" xmlns="http://www.w3.org/2000/svg"><g clip-path="url(#clip0_7_1032)"><path fill="url(#paint0_linear_7_1032)" d="M28.674 14.099h5.475V36h-5.475z"/><path fill="url(#paint1_linear_7_1032)" d="M20.187 19.574h5.749V36h-5.749z"/><path fill="url(#paint2_linear_7_1032)" d="M11.974 25.049h5.749V36h-5.749z"/><path fill="url(#paint3_linear_7_1032)" d="M3.761 28.882H9.51V36H3.761z"/><path d="M29.495 12.593L25.8 9.582l3.696-5.065-1.78-1.369L35.93 0l-.959 8.897-1.779-1.505-3.696 5.201z" fill="#803A6A"/><path d="M27.442 10.266C22.377 16.016 14.986 22.312.75 23.27c15.44 1.204 25.14-7.437 28.06-11.909l-1.368-1.095z" fill="#803A6A"/></g><defs><linearGradient id="paint0_linear_7_1032" x1="29.973" y1="31.632" x2="35.731" y2="30.279" gradientUnits="userSpaceOnUse"><stop stop-color="#DF286A"/><stop offset="0" stop-color="#DF286A"/><stop offset=".479" stop-color="#E3484D"/><stop offset=".479" stop-color="#E3484D"/><stop offset="1" stop-color="#E86A2D"/></linearGradient><linearGradient id="paint1_linear_7_1032" x1="21.551" y1="32.724" x2="27.308" y2="30.83" gradientUnits="userSpaceOnUse"><stop stop-color="#DF286A"/><stop offset="0" stop-color="#DF286A"/><stop offset=".479" stop-color="#E3484D"/><stop offset=".479" stop-color="#E3484D"/><stop offset="1" stop-color="#E86A2D"/></linearGradient><linearGradient id="paint2_linear_7_1032" x1="13.338" y1="33.816" x2="18.469" y2="31.284" gradientUnits="userSpaceOnUse"><stop stop-color="#DF286A"/><stop offset="0" stop-color="#DF286A"/><stop offset=".479" stop-color="#E3484D"/><stop offset=".479" stop-color="#E3484D"/><stop offset="1" stop-color="#E86A2D"/></linearGradient><linearGradient id="paint3_linear_7_1032" x1="5.125" y1="34.581" x2="9.173" y2="31.508" gradientUnits="userSpaceOnUse"><stop stop-color="#DF286A"/><stop offset="0" stop-color="#DF286A"/><stop offset=".479" stop-color="#E3484D"/><stop offset=".479" stop-color="#E3484D"/><stop offset="1" stop-color="#E86A2D"/></linearGradient><clipPath id="clip0_7_1032"><path fill="#fff" d="M0 0h36v36H0z"/></clipPath></defs></svg>