<svg width="103" height="15" fill="none" xmlns="http://www.w3.org/2000/svg"><path d="M92.658 14.7V8.484l.966 2.499L87.05 0h4.389l4.746 7.959h-2.541L98.412 0h4.032l-6.552 10.983.924-2.499V14.7h-4.158zM79.331 6.447h6.783V9.66h-6.783V6.447zm.294 8.253h-4.158V0h11.529v3.213h-7.371V14.7zm-11.275 0V0h4.159v14.7H68.35z" fill="#803A6A"/><path d="M56.277 11.445l-.231-4.662L62.366 0h4.579l-6.3 6.825-2.31 2.415-2.058 2.205zM52.56 14.7V0h4.116v14.7H52.56zm9.87 0l-4.788-6.069 2.709-2.898L67.26 14.7h-4.83z" fill="#DF286A"/><path d="M37.015 14.7V0h6.72c1.344 0 2.499.217 3.465.651.98.434 1.736 1.064 2.268 1.89.532.812.798 1.778.798 2.898 0 1.106-.266 2.065-.798 2.877-.532.798-1.288 1.414-2.268 1.848-.966.42-2.121.63-3.465.63h-4.41l1.848-1.743V14.7h-4.158zm9.093 0l-3.654-5.355h4.43L50.56 14.7h-4.452zm-4.935-5.208l-1.848-1.911h4.158c.868 0 1.512-.189 1.932-.567.434-.378.65-.903.65-1.575 0-.686-.216-1.218-.65-1.596-.42-.378-1.064-.567-1.932-.567h-4.158l1.848-1.911v8.127zM18.742 14.7L25.232 0h4.094l6.51 14.7H31.51L26.428 2.037h1.638L22.984 14.7h-4.242zm3.55-2.856l1.07-3.066h7.182l1.071 3.066h-9.324z" fill="#803A6A"/><path d="M.47 14.7V0h3.423l6.09 9.996H8.177L14.099 0h3.423l.042 14.7h-3.822L13.7 5.817h.651L9.92 13.251H8.072L3.515 5.817h.798V14.7H.47z" fill="#EB8B27"/></svg>