<svg width="36" id="mainIcon" height="36" viewBox="0 0 36 36" fill="none" xmlns="http://www.w3.org/2000/svg">
<g clip-path="url(#clip0_7_1032)">
<rect x="28.674" y="14.0989" width="5.47529" height="21.9011" fill="url(#paint0_linear_7_1032)"/>
<rect x="20.1874" y="19.5742" width="5.74905" height="16.4259" fill="url(#paint1_linear_7_1032)"/>
<rect x="11.9742" y="25.0493" width="5.74905" height="10.9506" fill="url(#paint2_linear_7_1032)"/>
<rect x="3.76147" y="28.8823" width="5.74905" height="7.11787" fill="url(#paint3_linear_7_1032)"/>
<path d="M29.4951 12.5932L25.7993 9.58175L29.4951 4.51711L27.7157 3.14829L35.9286 0L34.9704 8.89734L33.191 7.39163L29.4951 12.5932Z" fill="#803A6A"/>
<path d="M27.442 10.2661C22.3774 16.0152 14.9857 22.3117 0.75 23.2699C16.1903 24.4745 25.8907 15.8327 28.8108 11.3612L27.442 10.2661Z" fill="#803A6A"/>
</g>
<defs>
<linearGradient id="paint0_linear_7_1032" x1="29.973" y1="31.6323" x2="35.7314" y2="30.279" gradientUnits="userSpaceOnUse">
<stop stop-color="#DF286A"/>
<stop offset="0.0001" stop-color="#DF286A"/>
<stop offset="0.479167" stop-color="#E3484D"/>
<stop offset="0.479267" stop-color="#E3484D"/>
<stop offset="1" stop-color="#E86A2D"/>
</linearGradient>
<linearGradient id="paint1_linear_7_1032" x1="21.5514" y1="32.7243" x2="27.3085" y2="30.8302" gradientUnits="userSpaceOnUse">
<stop stop-color="#DF286A"/>
<stop offset="0.0001" stop-color="#DF286A"/>
<stop offset="0.479167" stop-color="#E3484D"/>
<stop offset="0.479267" stop-color="#E3484D"/>
<stop offset="1" stop-color="#E86A2D"/>
</linearGradient>
<linearGradient id="paint2_linear_7_1032" x1="13.3382" y1="33.816" x2="18.4689" y2="31.284" gradientUnits="userSpaceOnUse">
<stop stop-color="#DF286A"/>
<stop offset="0.0001" stop-color="#DF286A"/>
<stop offset="0.479167" stop-color="#E3484D"/>
<stop offset="0.479267" stop-color="#E3484D"/>
<stop offset="1" stop-color="#E86A2D"/>
</linearGradient>
<linearGradient id="paint3_linear_7_1032" x1="5.12546" y1="34.5807" x2="9.17265" y2="31.5078" gradientUnits="userSpaceOnUse">
<stop stop-color="#DF286A"/>
<stop offset="0.0001" stop-color="#DF286A"/>
<stop offset="0.479167" stop-color="#E3484D"/>
<stop offset="0.479267" stop-color="#E3484D"/>
<stop offset="1" stop-color="#E86A2D"/>
</linearGradient>
<clipPath id="clip0_7_1032">
<rect width="36" height="36" fill="white"/>
</clipPath>
</defs>
</svg>
