<svg width="103" id="markify" height="15" viewBox="0 0 103 15" fill="none" xmlns="http://www.w3.org/2000/svg">
<path d="M92.6577 14.7V8.484L93.6237 10.983L87.0507 0H91.4397L96.1857 7.959H93.6447L98.4117 0H102.444L95.8917 10.983L96.8157 8.484V14.7H92.6577Z" fill="#803A6A"/>
<path d="M79.331 6.447H86.114V9.66H79.331V6.447ZM79.625 14.7H75.467V0H86.996V3.213H79.625V14.7Z" fill="#803A6A"/>
<path d="M68.3508 14.7V0H72.5088V14.7H68.3508Z" fill="#803A6A"/>
<path d="M56.2768 11.445L56.0458 6.783L62.3668 0H66.9448L60.6448 6.825L58.3348 9.24L56.2768 11.445ZM52.5598 14.7V0H56.6758V14.7H52.5598ZM62.4298 14.7L57.6418 8.631L60.3508 5.733L67.2598 14.7H62.4298Z" fill="#DF286A"/>
<path d="M37.0149 14.7V0H43.7349C45.0789 0 46.2339 0.217 47.1999 0.651001C48.1799 1.085 48.9359 1.715 49.4679 2.541C49.9999 3.353 50.2659 4.319 50.2659 5.439C50.2659 6.545 49.9999 7.504 49.4679 8.316C48.9359 9.114 48.1799 9.73 47.1999 10.164C46.2339 10.584 45.0789 10.794 43.7349 10.794H39.3249L41.1729 9.051V14.7H37.0149ZM46.1079 14.7L42.4539 9.345H46.8849L50.5599 14.7H46.1079ZM41.1729 9.492L39.3249 7.581H43.4829C44.3509 7.581 44.9949 7.392 45.4149 7.014C45.8489 6.636 46.0659 6.111 46.0659 5.439C46.0659 4.753 45.8489 4.221 45.4149 3.843C44.9949 3.465 44.3509 3.276 43.4829 3.276H39.3249L41.1729 1.365V9.492Z" fill="#803A6A"/>
<path d="M18.7421 14.7L25.2311 0H29.3261L35.8361 14.7H31.5101L26.4281 2.037H28.0661L22.9841 14.7H18.7421ZM22.2911 11.844L23.3621 8.778H30.5441L31.6151 11.844H22.2911Z" fill="#803A6A"/>
<path d="M0.469971 14.7V0H3.89297L9.98297 9.996H8.17697L14.099 0H17.522L17.564 14.7H13.742L13.7 5.817H14.351L9.91997 13.251H8.07197L3.51497 5.817H4.31297V14.7H0.469971Z" fill="#EB8B27"/>
</svg>
